<svg xmlns="http://www.w3.org/2000/svg" width="1280" height="1280" viewBox="0 0 1280 1280">
  <rect width="1280" height="1280" fill="#f6f2e8"/>
  <rect x="92" y="92" width="1096" height="1096" rx="28" fill="#10202f"/>
  <rect x="134" y="134" width="1012" height="1012" rx="18" fill="#fbfaf6"/>
  <text x="190" y="242" font-family="Arial, Helvetica, sans-serif" font-size="42" fill="#51606a">FREE WORKFLOW KIT</text>
  <text x="190" y="360" font-family="Arial, Helvetica, sans-serif" font-size="86" font-weight="700" fill="#14202b">Font</text>
  <text x="190" y="458" font-family="Arial, Helvetica, sans-serif" font-size="86" font-weight="700" fill="#14202b">Provenance</text>
  <text x="190" y="556" font-family="Arial, Helvetica, sans-serif" font-size="86" font-weight="700" fill="#14202b">Log Kit</text>
  <text x="190" y="666" font-family="Arial, Helvetica, sans-serif" font-size="38" fill="#374957">Track source URLs, mirror risk,</text>
  <text x="190" y="724" font-family="Arial, Helvetica, sans-serif" font-size="38" fill="#374957">embedding, redistribution,</text>
  <text x="190" y="782" font-family="Arial, Helvetica, sans-serif" font-size="38" fill="#374957">and final re-checks.</text>
  <rect x="190" y="880" width="394" height="70" rx="10" fill="#d9523f"/>
  <text x="222" y="926" font-family="Arial, Helvetica, sans-serif" font-size="31" font-weight="700" fill="#ffffff">No font files included</text>
  <rect x="760" y="268" width="278" height="354" rx="14" fill="#e5edf1" stroke="#14202b" stroke-width="6"/>
  <text x="800" y="342" font-family="Arial, Helvetica, sans-serif" font-size="28" font-weight="700" fill="#14202b">SOURCE</text>
  <text x="800" y="380" font-family="Arial, Helvetica, sans-serif" font-size="28" font-weight="700" fill="#14202b">LOG</text>
  <line x1="800" y1="438" x2="1000" y2="438" stroke="#51606a" stroke-width="8"/>
  <line x1="800" y1="490" x2="1000" y2="490" stroke="#51606a" stroke-width="8"/>
  <line x1="800" y1="542" x2="948" y2="542" stroke="#51606a" stroke-width="8"/>
  <circle cx="824" cy="704" r="28" fill="#3b7c7a"/>
  <path d="M810 704l11 12 24-30" fill="none" stroke="#fff" stroke-width="8" stroke-linecap="round" stroke-linejoin="round"/>
</svg>
